<?xml version="1.0" encoding="utf-8"?>
<!-- Generator: Adobe Illustrator 22.0.0, SVG Export Plug-In . SVG Version: 6.00 Build 0)  -->
<svg version="1.1" id="Layer_1" xmlns="http://www.w3.org/2000/svg" xmlns:xlink="http://www.w3.org/1999/xlink" x="0px" y="0px"
	 viewBox="0 0 209.1 234.7" style="enable-background:new 0 0 209.1 234.7;" xml:space="preserve">
<style type="text/css">
	.st0{fill:#FFFFFF;}
</style>
<path class="st0" d="M106.3,142.4c-7-8.8-9.4-17.7-5.5-28.5c-14.7,1.1-27.8-1-38.7-10.3c-11-9.4-15.4-21.7-15.2-36.3
	c-14.7,0-28.9,0-44.2,0c1.5-1.7,2.3-2.8,3.3-3.8C25.9,43.6,45.6,23.8,65.5,4.1c1.5-1.5,3.9-2.9,5.9-2.9c42.3-0.2,84.6-0.1,127-0.1
	c0.6,0,1.2,0.1,3.1,0.4c-3.5,3.4-6.7,5.9-9.1,8.9c-1.5,1.9-2.7,4.5-2.8,6.9c-0.2,5.7-1.7,11.9,3.8,16.5c1.1,0.9,1,3.4,1,5.2
	c0.1,20.7,0.1,41.3,0,62c0,6.3-3.1,10-8,10c-4.9,0-8-3.7-8-10c0-20.7,0-41.3,0-62c0-1.9,0.6-3.9,1.2-5.8c1.2-3.7,2.6-7.4,3.8-11.1
	c-0.5-0.3-0.9-0.5-1.4-0.8c-0.6,0.3-1.4,0.5-1.9,1c-8.2,8.1-16.4,16.2-24.3,24.5c-1.1,1.1-1.6,3.6-1.2,5.2
	c5.1,19.4-0.1,35.4-15.6,48.3c-3.7,3.1-7.4,6.3-10.5,9.9c-4.8,5.7-4.4,11.9,1.1,16.9c7.1,6.5,14.7,12.5,21.9,18.9
	c22.3,19.7,16.9,49.7-3,66.3c-12.7,10.6-27.7,15.6-44,17c-16.3,1.4-32.3,0.6-47.5-6.2c-15.9-7.1-25-20.1-23.9-35.2
	c1-13.3,7.6-23.5,18.8-30.8c14-9.2,29.8-11.9,46-13.6C100.4,143.1,102.8,142.8,106.3,142.4z M58.1,180.4
	c-0.1,15.8,6.4,24.7,17.2,30.2c16.1,8.4,33.3,9.5,50.4,4c21.6-6.8,27.9-29.9,12.6-45.9c-6-6.3-13.6-11.2-20.6-16.5
	c-1.1-0.8-2.8-1.2-4.2-1.2c-13.3,0-26.4,1.3-38.4,7.4C65,163.6,58.3,171.4,58.1,180.4z M131.4,74.3c-1-13-4.9-27.9-16.8-39.6
	c-7.2-7.1-15.5-9.5-25.2-6.3c-9.6,3.2-15.4,10-16.7,19.9c-2.4,17.9,2,34,13.7,47.9c4.1,4.8,9.3,8,15.7,9.1
	C119,108.1,131.4,96.2,131.4,74.3z"/>
</svg>
