<?xml version="1.0" encoding="utf-8"?>
<!-- Generator: Adobe Illustrator 22.0.0, SVG Export Plug-In . SVG Version: 6.00 Build 0)  -->
<svg version="1.1" id="Layer_1" xmlns="http://www.w3.org/2000/svg" xmlns:xlink="http://www.w3.org/1999/xlink" x="0px" y="0px"
	 viewBox="0 0 208 208" style="enable-background:new 0 0 208 208;" xml:space="preserve">
<style type="text/css">
	.st0{fill:#FFFFFF;}
</style>
<path class="st0" d="M104,1.5C47.4,1.5,1.5,47.4,1.5,104S47.4,206.5,104,206.5S206.5,160.6,206.5,104S160.6,1.5,104,1.5z M104,190.5
	c-47.7,0-86.5-38.8-86.5-86.5S56.3,17.5,104,17.5s86.5,38.8,86.5,86.5S151.7,190.5,104,190.5z"/>
<path class="st0" d="M161.3,115.9c0,0,10.3-1.8,16.4-1.7c6.1,0.1,13.1,1.9,13.1,1.9"/>
<path class="st0" d="M158.7,119.2c0,0,11.8-1,16.7-0.9c6.7,0.2,14,2.3,14,2.3"/>
<path class="st0" d="M53.1,115.3c0,0-14.6-1.4-19.2-1.4s-13.2,1.4-17.4,2.6"/>
<path class="st0" d="M56.4,119.8c0,0-15.4-1.4-22.3-0.6c-8.3,1-15.6,5.3-15.6,5.3"/>
<path class="st0" d="M50.4,104c0-24.6,25.8-47.1,57.5-47.1s57.5,22.5,57.5,47.1S147,146,108,146S50.4,128.6,50.4,104z"/>
<path class="st0" d="M129.7,61.6c0,0,9.1-12.5,25.7-12.5c6.7,6.7,2.1,25.7,0,31.4L129.7,61.6z"/>
<path class="st0" d="M86.8,61.6c0,0-9.1-12.5-25.7-12.5c-6.7,6.7-2.1,25.7,0,31.4L86.8,61.6z"/>
<path class="st0" d="M83,168c0,0-12.7,0-15.1,0c-6.6,0-12.4-2.8-15.2-8.1c-3.1-5.8-6.1-12.4-13.9-17.9c-1.4-1-0.6-2.4,2.1-2.1
	c2.6,0.3,7.7,0.9,11.5,5.9c3.8,5,8,10.8,15.1,10.8s14.8,0.2,18.7-4.9L83,168z"/>
<path class="st0" d="M114.4,141.5h-12.7c-12,0-21.6,17-21.6,29v21.9c0,6.8,3.2,9.5,8,10.6v-26.1c0-2.2,1.8-4,4-4s4,1.8,4,4v27
	c1.8,0,3.7,0,5.6,0h2.4V172c0-2.2,1.8-4,4-4s4,1.8,4,4v31.9h2.4c2,0,3.8,0,5.6,0v-27c0-2.2,1.8-4,4-4s4,1.8,4,4V203
	c4.8-1.2,8-3.9,8-10.6v-21.9C136,158.5,126.3,141.5,114.4,141.5z"/>
</svg>
