<svg id="Layer_1" data-name="Layer 1" xmlns="http://www.w3.org/2000/svg" viewBox="0 0 562.396 115.883">
  <defs>
    <style>
      .cls-1 {
        fill: #b5252a;
      }

      .cls-2 {
        fill: none;
        stroke: #000;
        stroke-miterlimit: 8;
        stroke-width: 3px;
      }
    </style>
  </defs>
  <title>mHealthLogo</title>
  <g>
    <path class="cls-1" d="M160.362,68.364q0,24.755.007,49.51c0,.445-.025.647-.589.623a2.982,2.982,0,0,0-3.1,3.135c.013.423-.094.505-.495.5q-26.5-.015-53,0c-.421,0-.534-.092-.52-.534a2.975,2.975,0,0,0-2.692-3.092c-.458-.045-.459-.225-.459-.564q.009-11.069,0-22.138,0-16.576-.009-33.152c0-.456.041-.66.588-.732a2.829,2.829,0,0,0,2.412-2.019,2.864,2.864,0,0,0-.688-3.071c-.257-.268-.206-.42-.04-.681,5.265-8.266,10.468-16.572,15.807-24.79,2.823-4.345,5.57-8.738,8.389-13.085.191-.3.32-.411.717-.284a2.9,2.9,0,0,0,3.743-2.4c.067-.356.167-.462.536-.461q12.6.018,25.191,0c.346,0,.482.064.552.443a2.989,2.989,0,0,0,3.168,2.545c.384-.016.486.067.481.454-.021,1.763-.009,3.526-.009,5.289ZM130.155,62.2c-3.29,0-6.58.01-9.87-.011-.463,0-.6.086-.6.582.022,5.326.006,10.651.026,15.977,0,.477-.107.592-.588.59-5.38-.02-10.76-.007-16.14-.023-.438,0-.528.123-.527.539q.021,8.179,0,16.358c0,.441.087.571.554.569,5.38-.019,10.76-.006,16.14-.023.452,0,.563.1.562.56-.018,5.344,0,10.687-.023,16.031,0,.463.122.557.567.556q9.9-.023,19.794,0c.463,0,.6-.086.6-.581-.022-5.326-.006-10.651-.026-15.977,0-.476.107-.592.588-.59,5.344.02,10.688.007,16.031.023.438,0,.528-.123.527-.539q-.021-8.179,0-16.358c0-.441-.087-.571-.554-.569-5.344.019-10.688.006-16.031.023-.452,0-.563-.1-.562-.56.018-5.344,0-10.688.023-16.031,0-.463-.122-.559-.567-.556C136.771,62.211,133.463,62.2,130.155,62.2Z" transform="translate(-12.605 -11.698)"/>
    <path class="cls-1" d="M71.576,46.515c.153,1.161.308,2.322.459,3.484q.748,5.78,1.493,11.56c.226,1.747.379,3.506.7,5.236.5,2.727.747,5.485,1.141,8.224.168,1.168.349,2.336.446,3.511.044.539.419.38.678.459.351.107.306-.222.355-.4,1.011-3.633,2.022-7.265,3.009-10.9.1-.374.241-.477.619-.475q5.016.024,10.032,0c.338,0,.5.074.615.414a2.728,2.728,0,0,0,1.73,1.765c.419.149.354.283.163.581q-6,9.379-11.981,18.769c-2.05,3.213-4.047,6.461-6.161,9.631-4.457,6.683-8.66,13.528-13.016,20.276-.205.318-.343.24-.661.186-.962-.164-1.194-.873-1.489-1.624Q50.435,93.686,41.138,70.176c-.156-.395-.236-.569.313-.721a2.9,2.9,0,0,0,2.129-2.26c.076-.325.2-.441.538-.42.507.031,1.018,0,1.526.012.184,0,.435-.119.466.262.014.171.283.079.436.088.226.013.183-.172.2-.308a3.369,3.369,0,0,1,2.519-2.908,3.77,3.77,0,0,1,3.925.929,2.7,2.7,0,0,1,.859,1.545c.077.5.321.621.805.616,2.617-.024,5.234,0,7.851-.023.393,0,.517.132.615.479q1.519,5.363,3.068,10.718c.05.173.136.336.178.51.07.292.313.189.485.219.279.047.206-.2.223-.334q.374-2.78.728-5.562.679-5.267,1.354-10.534.688-5.348,1.379-10.7.341-2.635.687-5.269Z" transform="translate(-12.605 -11.698)"/>
    <path class="cls-1" d="M93.9,63.474a3.094,3.094,0,0,0-2.975,2.82c-.052.315-.21.27-.4.271H86.983c-2.308,0-4.616.015-6.924-.013-.47-.006-.62.143-.738.585-.879,3.274-1.794,6.538-2.7,9.8a1.281,1.281,0,0,1-.268.546c-.09-.653-.185-1.305-.269-1.959-.553-4.3-1.008-8.622-1.676-12.907-.973-6.235-1.639-12.508-2.508-18.755-.026-.183.067-.486-.229-.531-.244-.037-.5-.1-.553.346-.286,2.434-.618,4.862-.931,7.293q-.68,5.266-1.356,10.533-.683,5.293-1.369,10.586c-.195,1.512-.383,3.026-.578,4.538a4.168,4.168,0,0,1-.122.457c-.692-2.4-1.358-4.713-2.024-7.023q-.361-1.254-.72-2.509a2.581,2.581,0,0,1-.1-.367c-.035-.265.045-.661-.1-.769-.263-.2-.663-.069-1-.07q-3.789-.01-7.578,0c-.346,0-.524-.056-.647-.436a4.255,4.255,0,0,0-3.941-2.839,4.333,4.333,0,0,0-4.27,2.609c-.137.343-.288.476-.661.451a12.832,12.832,0,0,0-1.634,0c-.325.019-.431-.1-.5-.4a2.924,2.924,0,0,0-2.112-2.277c-.515-.152-.413-.317-.247-.656q2.244-4.563,4.469-9.135,8.6-17.589,17.189-35.179a.689.689,0,0,1,.536-.458,2.9,2.9,0,0,0,1.364-.735C74.53,32.658,84.265,48,93.9,63.474Z" transform="translate(-12.605 -11.698)"/>
    <path class="cls-1" d="M38.949,15.142q10.03,0,20.06-.011c.443,0,.6.1.682.557A2.792,2.792,0,0,0,61.812,18c.515.141.46.29.276.666q-9.837,20.095-19.659,40.2c-.653,1.335-1.312,2.667-1.95,4.009a.733.733,0,0,1-.623.506c-.142.013-.276.089-.418.111-.277.043-.513.41-.754.256-.192-.122-.243-.469-.354-.717-2.381-5.307-4.7-10.646-7.157-15.915-4.583-9.81-8.877-19.749-13.363-29.6a.721.721,0,0,1,.032-.882,1.67,1.67,0,0,0,.374-1.007c.011-.468.254-.488.621-.488Q28.892,15.148,38.949,15.142Z" transform="translate(-12.605 -11.698)"/>
    <path class="cls-1" d="M17.142,70.472c10.146,16.162,20.566,32.115,30.66,48.29a3.1,3.1,0,0,0-1.7,3.051c.015.24-.049.341-.292.32-.108-.009-.218,0-.327,0q-13.3,0-26.6.008c-.456,0-.647-.046-.626-.6a2.954,2.954,0,0,0-2.53-3.012c-.377-.067-.492-.162-.492-.56q.018-23.166,0-46.332c0-.353.061-.505.449-.539A2.836,2.836,0,0,0,17.142,70.472Z" transform="translate(-12.605 -11.698)"/>
    <path class="cls-1" d="M59.457,118.347c.032.065,0,.1-.074.151a.8.8,0,0,1-1.2-.257L33.1,78.706c-.671-1.057-1.321-2.128-2.016-3.17-4.833-7.239-9.352-14.679-14.053-22-.093-.145-.389-.275-.17-.535.264-.314.478-.079.7.069,4.26,2.9,8.5,5.842,12.789,8.7,2.219,1.477,4.41,2.993,6.633,4.464a.838.838,0,0,1,.419.631,3.024,3.024,0,0,0,2.446,2.66c.348.081.454.286.565.565q7.623,19.319,15.252,38.635,1.827,4.627,3.646,9.257C59.353,118.1,59.4,118.214,59.457,118.347Z" transform="translate(-12.605 -11.698)"/>
    <path class="cls-1" d="M37.395,65.726c-1.137-.774-2.268-1.56-3.414-2.323-5.334-3.547-10.619-7.165-15.913-10.769-.314-.214-.424-.336-.2-.731A2.991,2.991,0,0,0,15.9,47.47c-.433-.1-.515-.272-.514-.682q.019-14.038,0-28.076c0-.434.115-.613.532-.668a1.439,1.439,0,0,0,.659-.234c.426-.32.591-.176.788.265,4.376,9.8,8.7,19.618,13.181,29.363,2.5,5.424,4.894,10.892,7.4,16.312a.826.826,0,0,1-.07,1.025A4.444,4.444,0,0,0,37.395,65.726Z" transform="translate(-12.605 -11.698)"/>
    <path class="cls-1" d="M162.448,15.074a2.672,2.672,0,1,1-2.718-2.592A2.609,2.609,0,0,1,162.448,15.074Z" transform="translate(-12.605 -11.698)"/>
    <path class="cls-1" d="M159.72,118.913a2.627,2.627,0,0,1,2.723,2.591,2.669,2.669,0,0,1-5.337.052A2.626,2.626,0,0,1,159.72,118.913Z" transform="translate(-12.605 -11.698)"/>
    <path class="cls-1" d="M17.838,15.067a2.617,2.617,0,1,1-2.612-2.594A2.626,2.626,0,0,1,17.838,15.067Z" transform="translate(-12.605 -11.698)"/>
    <path class="cls-1" d="M65.278,15.071a2.617,2.617,0,1,1-2.608-2.6A2.626,2.626,0,0,1,65.278,15.071Z" transform="translate(-12.605 -11.698)"/>
    <path class="cls-1" d="M15.2,47.807a2.617,2.617,0,1,1-2.6,2.606A2.626,2.626,0,0,1,15.2,47.807Z" transform="translate(-12.605 -11.698)"/>
    <path class="cls-1" d="M102.249,58.922a2.617,2.617,0,1,1-2.6-2.608A2.626,2.626,0,0,1,102.249,58.922Z" transform="translate(-12.605 -11.698)"/>
    <path class="cls-1" d="M93.948,69.181A2.617,2.617,0,1,1,96.578,66.6,2.626,2.626,0,0,1,93.948,69.181Z" transform="translate(-12.605 -11.698)"/>
    <path class="cls-1" d="M17.838,68.081a2.617,2.617,0,1,1-2.6-2.606A2.626,2.626,0,0,1,17.838,68.081Z" transform="translate(-12.605 -11.698)"/>
    <path class="cls-1" d="M15.24,118.913a2.617,2.617,0,1,1-2.635,2.571A2.627,2.627,0,0,1,15.24,118.913Z" transform="translate(-12.605 -11.698)"/>
    <path class="cls-1" d="M51.755,121.512a2.617,2.617,0,1,1-2.606-2.6A2.626,2.626,0,0,1,51.755,121.512Z" transform="translate(-12.605 -11.698)"/>
    <path class="cls-1" d="M59.818,118.913a2.617,2.617,0,1,1-2.608,2.6A2.626,2.626,0,0,1,59.818,118.913Z" transform="translate(-12.605 -11.698)"/>
    <path class="cls-1" d="M99.665,118.913a2.617,2.617,0,1,1-2.649,2.557A2.627,2.627,0,0,1,99.665,118.913Z" transform="translate(-12.605 -11.698)"/>
    <ellipse class="cls-1" cx="127.551" cy="15.089" rx="2.617" ry="2.508" transform="translate(99.017 130.84) rotate(-89.623)"/>
  </g>
  <g>
    <g>
      <path d="M217.608,70.445V51.734a18.288,18.288,0,0,0-.206-2.786,6.671,6.671,0,0,0-.757-2.3,4.365,4.365,0,0,0-1.479-1.548,4.541,4.541,0,0,0-2.443-.584,4.912,4.912,0,0,0-2.512.619,5.584,5.584,0,0,0-1.789,1.651,7.224,7.224,0,0,0-1.066,2.373,11.145,11.145,0,0,0-.344,2.786v18.5H195.727V50.908a8.216,8.216,0,0,0-1.169-4.678,4.176,4.176,0,0,0-3.716-1.72,4.777,4.777,0,0,0-4.163,2.132,8.944,8.944,0,0,0-1.479,5.228V70.445H173.846V36.187h10.941v4.747h.137a12,12,0,0,1,1.548-2.133,9.829,9.829,0,0,1,2.236-1.823,12.548,12.548,0,0,1,2.924-1.272,12.4,12.4,0,0,1,3.544-.482,12.255,12.255,0,0,1,6.3,1.514,10.377,10.377,0,0,1,4.025,4.334,13.042,13.042,0,0,1,4.4-4.265,12.663,12.663,0,0,1,6.537-1.583,12.341,12.341,0,0,1,5.883,1.273,10.959,10.959,0,0,1,3.819,3.3,13.729,13.729,0,0,1,2.1,4.54,19.5,19.5,0,0,1,.654,4.919V70.445Z" transform="translate(-12.605 -11.698)"/>
      <path d="M267.426,70.445V50.082H248.435V70.445H236.668V21.74h11.767V40.177h18.991V21.74h11.767v48.7Z" transform="translate(-12.605 -11.698)"/>
      <path d="M321.234,53.728V55.1a12.086,12.086,0,0,1-.068,1.307H296.325a5.983,5.983,0,0,0,.86,2.614,7.417,7.417,0,0,0,1.858,2.029,9.114,9.114,0,0,0,5.47,1.823,9.493,9.493,0,0,0,4.542-1,8.975,8.975,0,0,0,3.027-2.58l7.845,4.953a15.874,15.874,0,0,1-6.365,5.4,21.079,21.079,0,0,1-9.187,1.892,21.946,21.946,0,0,1-7.294-1.2,17.694,17.694,0,0,1-6.021-3.508A16.235,16.235,0,0,1,287,61.158a18.98,18.98,0,0,1-1.479-7.7,19.268,19.268,0,0,1,1.445-7.6,17.177,17.177,0,0,1,3.922-5.778,17.488,17.488,0,0,1,5.849-3.681,20.018,20.018,0,0,1,7.294-1.307,18.479,18.479,0,0,1,6.95,1.272,15.149,15.149,0,0,1,5.436,3.68,17.031,17.031,0,0,1,3.544,5.847A22.529,22.529,0,0,1,321.234,53.728Zm-10.39-4.334a6.763,6.763,0,0,0-1.687-4.609,6.369,6.369,0,0,0-5.058-1.926,8.565,8.565,0,0,0-3.027.516,7.866,7.866,0,0,0-2.408,1.41,6.988,6.988,0,0,0-1.651,2.1,6.144,6.144,0,0,0-.688,2.511Z" transform="translate(-12.605 -11.698)"/>
      <path d="M326.188,40.864a19.769,19.769,0,0,1,7.054-4.334,24.174,24.174,0,0,1,8.223-1.444,22,22,0,0,1,7.328,1.066,10.932,10.932,0,0,1,4.851,3.3,14.07,14.07,0,0,1,2.718,5.641,33.333,33.333,0,0,1,.86,8.083V70.445H346.9V66.8h-.206a8.494,8.494,0,0,1-3.957,3.3,14.075,14.075,0,0,1-5.745,1.169,17.6,17.6,0,0,1-4.267-.55,12.475,12.475,0,0,1-4.025-1.789,9.675,9.675,0,0,1-2.993-3.3,10.184,10.184,0,0,1-1.17-5.09,8.64,8.64,0,0,1,2.03-5.985,13.31,13.31,0,0,1,5.229-3.508,27.708,27.708,0,0,1,7.122-1.651,73.039,73.039,0,0,1,7.638-.413v-.55a4.2,4.2,0,0,0-1.789-3.749,7.719,7.719,0,0,0-4.4-1.2,10.959,10.959,0,0,0-4.645,1.032,14.8,14.8,0,0,0-3.818,2.477ZM346.9,55.517h-1.445q-1.857,0-3.75.172a15.486,15.486,0,0,0-3.371.654,6.236,6.236,0,0,0-2.443,1.41,3.237,3.237,0,0,0-.963,2.442,2.952,2.952,0,0,0,.447,1.651,3.461,3.461,0,0,0,1.135,1.1,4.8,4.8,0,0,0,1.583.584,9.061,9.061,0,0,0,1.721.172,6.973,6.973,0,0,0,5.264-1.892,7.075,7.075,0,0,0,1.823-5.125Z" transform="translate(-12.605 -11.698)"/>
      <path d="M363.758,70.445V18.439h11.423V70.445Z" transform="translate(-12.605 -11.698)"/>
      <path d="M394.31,44.648v13.07a5.859,5.859,0,0,0,.929,3.612,3.986,3.986,0,0,0,3.337,1.2,11.92,11.92,0,0,0,1.755-.137,5.988,5.988,0,0,0,1.548-.413l.138,8.255a18.71,18.71,0,0,1-2.959.722,20.892,20.892,0,0,1-3.578.31,16.892,16.892,0,0,1-5.779-.859,8.946,8.946,0,0,1-3.75-2.477,9.7,9.7,0,0,1-2.03-3.853,18.656,18.656,0,0,1-.619-4.987V44.648h-5.5V36.187h5.436V27.175H394.31v9.012h8.051v8.461Z" transform="translate(-12.605 -11.698)"/>
      <path d="M428.989,70.445V51.871a17.623,17.623,0,0,0-.207-2.751,6.541,6.541,0,0,0-.791-2.3,4.471,4.471,0,0,0-1.548-1.582,4.728,4.728,0,0,0-2.478-.585,5.347,5.347,0,0,0-4.541,2.1,8.377,8.377,0,0,0-1.583,5.194v18.5H406.557V18.439h11.285V40.52h.138a10.746,10.746,0,0,1,3.716-3.68,11.19,11.19,0,0,1,6.124-1.617,12.621,12.621,0,0,1,5.883,1.238,11.274,11.274,0,0,1,3.854,3.2,12.611,12.611,0,0,1,2.133,4.506,20.413,20.413,0,0,1,.654,5.091V70.445Z" transform="translate(-12.605 -11.698)"/>
      <path d="M463.324,70.445V21.74H475.09V60.195h18.854v10.25Z" transform="translate(-12.605 -11.698)"/>
      <path d="M496.627,40.864a19.769,19.769,0,0,1,7.054-4.334,24.174,24.174,0,0,1,8.223-1.444,22,22,0,0,1,7.328,1.066,10.932,10.932,0,0,1,4.851,3.3,14.07,14.07,0,0,1,2.718,5.641,33.333,33.333,0,0,1,.86,8.083V70.445H517.339V66.8h-.206a8.494,8.494,0,0,1-3.957,3.3,14.075,14.075,0,0,1-5.745,1.169,17.6,17.6,0,0,1-4.267-.55,12.475,12.475,0,0,1-4.025-1.789,9.675,9.675,0,0,1-2.993-3.3,10.184,10.184,0,0,1-1.17-5.09,8.64,8.64,0,0,1,2.03-5.985,13.31,13.31,0,0,1,5.229-3.508,27.708,27.708,0,0,1,7.122-1.651A73.039,73.039,0,0,1,517,48.982v-.55a4.2,4.2,0,0,0-1.789-3.749,7.719,7.719,0,0,0-4.4-1.2,10.959,10.959,0,0,0-4.645,1.032,14.8,14.8,0,0,0-3.818,2.477Zm20.712,14.652h-1.445q-1.857,0-3.75.172a15.486,15.486,0,0,0-3.371.654,6.236,6.236,0,0,0-2.443,1.41,3.237,3.237,0,0,0-.963,2.442,2.952,2.952,0,0,0,.447,1.651,3.461,3.461,0,0,0,1.135,1.1,4.8,4.8,0,0,0,1.583.584,9.061,9.061,0,0,0,1.721.172,6.973,6.973,0,0,0,5.264-1.892,7.075,7.075,0,0,0,1.823-5.125Z" transform="translate(-12.605 -11.698)"/>
      <path d="M572.248,53.178a21.621,21.621,0,0,1-1.1,6.879,17.7,17.7,0,0,1-3.2,5.813,15.791,15.791,0,0,1-5.127,4.024,15.186,15.186,0,0,1-6.881,1.514,15.363,15.363,0,0,1-6.5-1.41,10.7,10.7,0,0,1-4.714-4.024h-.138v4.471H534.2V18.439h11.285V39.833h.138a14.179,14.179,0,0,1,4.06-3.165,13.071,13.071,0,0,1,6.4-1.445,15.087,15.087,0,0,1,11.8,5.366,17.872,17.872,0,0,1,3.234,5.744A20.712,20.712,0,0,1,572.248,53.178Zm-10.871,0a10.373,10.373,0,0,0-.517-3.233,7.908,7.908,0,0,0-4.094-4.747,7.757,7.757,0,0,0-3.51-.757,7.589,7.589,0,0,0-3.44.757,8.209,8.209,0,0,0-2.58,1.995,9.1,9.1,0,0,0-1.651,2.82,9.229,9.229,0,0,0,0,6.467,9.089,9.089,0,0,0,1.651,2.82,8.194,8.194,0,0,0,2.58,1.995,7.576,7.576,0,0,0,3.44.757,7.744,7.744,0,0,0,3.51-.757,7.834,7.834,0,0,0,2.546-1.995,8.4,8.4,0,0,0,1.548-2.855A10.693,10.693,0,0,0,561.377,53.178Z" transform="translate(-12.605 -11.698)"/>
    </g>
    <g>
      <path d="M170.023,89.564h9.933a7.243,7.243,0,0,1,5.1,1.792A6.121,6.121,0,0,1,187,96.091a6.3,6.3,0,0,1-1.172,3.823A8.069,8.069,0,0,1,182.3,102.5a8.193,8.193,0,0,1,4.946,2.222,6.64,6.64,0,0,1,1.642,4.745,7.152,7.152,0,0,1-2.673,5.855,11.114,11.114,0,0,1-7.219,2.172h-8.971Zm6.508,5.426v5.3h.721a3.346,3.346,0,0,0,2.313-.76,2.676,2.676,0,0,0,.851-2.1,2.375,2.375,0,0,0-.661-1.832,2.868,2.868,0,0,0-2-.61Zm0,10.49v6.526h2.1a3.774,3.774,0,0,0,2.593-.911,3.211,3.211,0,0,0-.01-4.725,3.836,3.836,0,0,0-2.583-.891Z" transform="translate(-12.605 -11.698)"/>
      <path d="M192.25,89.564h6.568v27.928H192.25Z" transform="translate(-12.605 -11.698)"/>
      <path d="M211.244,89.1a9.514,9.514,0,0,1,7.99,3.823q2.924,3.825,2.924,10.451,0,6.646-2.944,10.6a9.1,9.1,0,0,1-7.629,3.954,8.475,8.475,0,0,1-7.529-4.1,18.416,18.416,0,0,1-2.663-10.229,21.031,21.031,0,0,1,1.3-7.617,11.245,11.245,0,0,1,3.645-5.125A8.077,8.077,0,0,1,211.244,89.1Zm.7,5.886a3.272,3.272,0,0,0-3,2.262,15.069,15.069,0,0,0-1.042,6.187,15.722,15.722,0,0,0,1.011,6.256q1.011,2.273,2.793,2.272,1.762,0,2.824-2.342a15.343,15.343,0,0,0,1.061-6.246,14.409,14.409,0,0,0-1.071-6.217Q213.447,94.99,211.945,94.989Z" transform="translate(-12.605 -11.698)"/>
      <path d="M224.671,89.564H231.8l3.9,10.691,3.9-10.691h7.149v27.928h-6.368v-10.45q0-3.964.32-8.048h-.48a47,47,0,0,1-1.662,5.565l-2.864,8.147-2.843-8.147a48.417,48.417,0,0,1-1.662-5.565h-.5q.341,3.784.341,8.048v10.45h-6.368Z" transform="translate(-12.605 -11.698)"/>
      <path d="M250.354,89.564h15.92V95.19h-9.412v5.146h8.771v5.445h-8.771v6.006h9.412v5.705h-15.92Z" transform="translate(-12.605 -11.698)"/>
      <path d="M269.167,89.564h8.15a10.246,10.246,0,0,1,6.087,1.723,9.334,9.334,0,0,1,3.455,4.9,22.708,22.708,0,0,1,1.031,7.027q0,6.466-2.914,10.369t-8.54,3.9h-7.27Zm6.508,5.426v17.037h.461q5.065,0,5.066-9.17a12.718,12.718,0,0,0-1.092-5.705,3.716,3.716,0,0,0-3.574-2.162Z" transform="translate(-12.605 -11.698)"/>
      <path d="M291.4,89.564h6.568v27.928H291.4Z" transform="translate(-12.605 -11.698)"/>
      <path d="M315.665,116.79a10.81,10.81,0,0,1-4.605,1.142,8.626,8.626,0,0,1-7.489-4.1,17.778,17.778,0,0,1-2.783-10.209,21.167,21.167,0,0,1,1.191-7.127,11.743,11.743,0,0,1,3.694-5.376A8.892,8.892,0,0,1,311.4,89.1a10.51,10.51,0,0,1,4.265,1.021v6.387a4.792,4.792,0,0,0-3.4-1.562,3.989,3.989,0,0,0-3.574,2.282,13.464,13.464,0,0,0-1.312,6.606,11.66,11.66,0,0,0,1.312,5.936,3.929,3.929,0,0,0,3.475,2.232,5.914,5.914,0,0,0,3.5-1.5Z" transform="translate(-12.605 -11.698)"/>
      <path d="M324.153,89.564h6.474l7.356,27.928h-7.089l-.993-5.545h-5.355l-1.021,5.545h-6.668Zm3.106,7.628-1.793,9.749h3.539Z" transform="translate(-12.605 -11.698)"/>
      <path d="M340.926,89.564h6.528v22.223h8.971v5.705h-15.5Z" transform="translate(-12.605 -11.698)"/>
      <path d="M368.275,89.564H384.2V95.19h-9.412v5.146h8.771v5.445h-8.771v6.006H384.2v5.705h-15.92Z" transform="translate(-12.605 -11.698)"/>
      <path d="M386.949,89.564h6.628l3.184,8.85q1.422,3.943,2.183,6.826h.341l-.16-4.725V89.564h6.248v27.928h-6.608l-3.185-8.849q-1.421-3.943-2.183-6.847h-.36l.16,4.725v10.971h-6.247Z" transform="translate(-12.605 -11.698)"/>
      <path d="M421.352,115.39a7.189,7.189,0,0,1-2.062,1.9,4.588,4.588,0,0,1-2.343.641,6.56,6.56,0,0,1-4.436-1.852,10.9,10.9,0,0,1-3.054-5.285,26.209,26.209,0,0,1-.981-7.237q0-6.466,2.874-10.46a9.072,9.072,0,0,1,7.76-3.994A10.874,10.874,0,0,1,425,90.745v6.191a7.462,7.462,0,0,0-4.595-2.067,4.374,4.374,0,0,0-4.073,2.423,13.666,13.666,0,0,0-1.344,6.605,17.058,17.058,0,0,0,.914,6.177q.916,2.292,2.483,2.292a1.269,1.269,0,0,0,1.2-.781,5.4,5.4,0,0,0,.393-2.342V107.5h-2.144v-5.024h8.211v15.015h-3.164Z" transform="translate(-12.605 -11.698)"/>
      <path d="M429.843,89.564h6.568v27.928h-6.568Z" transform="translate(-12.605 -11.698)"/>
      <path d="M439.926,89.564h6.628l3.184,8.85q1.422,3.943,2.183,6.826h.341l-.16-4.725V89.564h6.248v27.928H451.74l-3.185-8.849q-1.421-3.943-2.183-6.847h-.36l.16,4.725v10.971h-6.247Z" transform="translate(-12.605 -11.698)"/>
      <path d="M462.273,89.564h15.92V95.19h-9.412v5.146h8.771v5.445h-8.771v6.006h9.412v5.705h-15.92Z" transform="translate(-12.605 -11.698)"/>
      <path d="M481.087,89.564h15.92V95.19h-9.412v5.146h8.771v5.445h-8.771v6.006h9.412v5.705h-15.92Z" transform="translate(-12.605 -11.698)"/>
      <path d="M499.661,89.564h10.032a8.335,8.335,0,0,1,5.518,1.762,6.155,6.155,0,0,1,2.112,5.006,6.989,6.989,0,0,1-1.512,4.534,9.98,9.98,0,0,1-4.536,2.952q3.785.6,4.686,4.8l1.9,8.869h-7.129l-1.043-7.728a6.593,6.593,0,0,0-.932-2.862,2.289,2.289,0,0,0-1.991-.9h-.6v11.491h-6.508Zm6.508,5.426v5.986h1.422a2.946,2.946,0,0,0,2.323-.9,3.311,3.311,0,0,0,.8-2.282,2.852,2.852,0,0,0-.7-2.1,2.882,2.882,0,0,0-2.122-.7Z" transform="translate(-12.605 -11.698)"/>
      <path d="M520.446,89.564h6.568v27.928h-6.568Z" transform="translate(-12.605 -11.698)"/>
      <path d="M530.53,89.564h6.628l3.184,8.85q1.422,3.943,2.183,6.826h.341l-.16-4.725V89.564h6.248v27.928h-6.608l-3.185-8.849q-1.421-3.943-2.183-6.847h-.36l.16,4.725v10.971H530.53Z" transform="translate(-12.605 -11.698)"/>
      <path d="M564.932,115.39a7.189,7.189,0,0,1-2.062,1.9,4.588,4.588,0,0,1-2.343.641,6.56,6.56,0,0,1-4.436-1.852,10.9,10.9,0,0,1-3.054-5.285,26.209,26.209,0,0,1-.981-7.237q0-6.466,2.874-10.46a9.072,9.072,0,0,1,7.76-3.994,10.874,10.874,0,0,1,5.887,1.642v6.191a7.462,7.462,0,0,0-4.595-2.067,4.374,4.374,0,0,0-4.073,2.423,13.666,13.666,0,0,0-1.344,6.605,17.058,17.058,0,0,0,.914,6.177q.916,2.292,2.483,2.292a1.269,1.269,0,0,0,1.2-.781,5.4,5.4,0,0,0,.393-2.342V107.5h-2.144v-5.024h8.211v15.015h-3.164Z" transform="translate(-12.605 -11.698)"/>
    </g>
    <line class="cls-2" x1="155.395" y1="64.421" x2="559.443" y2="64.421"/>
  </g>
</svg>
